<svg width="1440" height="1024" viewBox="0 0 1440 1024" fill="none" xmlns="http://www.w3.org/2000/svg">
<mask id="mask0_15_17" style="mask-type:alpha" maskUnits="userSpaceOnUse" x="0" y="0" width="1441" height="1025">
<rect width="1441" height="1025" fill="#D9D9D9"/>
</mask>
<g mask="url(#mask0_15_17)">
<g filter="url(#filter0_f_15_17)">
<ellipse cx="722.301" cy="609.281" rx="495.344" ry="362.929" fill="#602A9A"/>
</g>
<g filter="url(#filter1_f_15_17)">
<ellipse cx="722.301" cy="609.281" rx="341.637" ry="250.311" fill="#622A9A"/>
</g>
<g opacity="0.3">
<path opacity="0.1" d="M720.5 172.067C891.511 172.067 1046.31 222.853 1158.35 304.941C1270.39 387.028 1339.63 500.389 1339.63 625.558C1339.63 750.726 1270.39 864.088 1158.35 946.175C1046.31 1028.26 891.511 1079.05 720.5 1079.05C549.489 1079.05 394.688 1028.26 282.651 946.175C170.614 864.088 101.37 750.726 101.37 625.558C101.37 500.389 170.614 387.028 282.651 304.941C394.688 222.854 549.489 172.067 720.5 172.067Z" stroke="white"/>
<path opacity="0.15" d="M1195.11 571.818C1195.39 573.124 1195.65 574.433 1195.9 575.744L1195.41 575.838C1195.67 577.147 1195.91 578.457 1196.14 579.77L1196.63 579.682C1196.87 580.997 1197.09 582.315 1197.3 583.635L1196.81 583.715C1197.03 585.033 1197.23 586.352 1197.42 587.674L1197.92 587.601C1198.11 588.922 1198.29 590.245 1198.47 591.571H1198.47L1197.97 591.635C1198.15 592.954 1198.31 594.276 1198.46 595.599L1198.95 595.542C1199.11 596.868 1199.25 598.196 1199.38 599.526L1198.89 599.576C1199.02 600.903 1199.14 602.233 1199.26 603.565L1199.75 603.523C1199.86 604.857 1199.97 606.192 1200.06 607.53V607.531L1199.56 607.565C1199.65 608.889 1199.73 610.215 1199.81 611.543L1200.3 611.517C1200.37 612.848 1200.43 614.18 1200.49 615.515L1199.99 615.534C1200.04 616.866 1200.08 618.2 1200.11 619.536L1200.61 619.524C1200.64 620.862 1200.66 622.202 1200.67 623.544L1200.17 623.548C1200.18 624.218 1200.18 624.888 1200.18 625.558C1200.18 626.229 1200.18 626.899 1200.17 627.569L1200.67 627.572C1200.66 628.913 1200.64 630.253 1200.61 631.591L1200.11 631.58C1200.08 632.916 1200.04 634.25 1199.99 635.582L1200.49 635.6C1200.43 636.935 1200.37 638.267 1200.3 639.598L1199.81 639.573C1199.73 640.901 1199.65 642.227 1199.56 643.551L1200.06 643.585C1199.97 644.923 1199.86 646.259 1199.75 647.593L1199.26 647.552C1199.14 648.884 1199.02 650.213 1198.89 651.54L1199.38 651.589C1199.25 652.919 1199.11 654.248 1198.95 655.574L1198.46 655.517C1198.31 656.84 1198.15 658.162 1197.97 659.481L1198.47 659.545C1198.29 660.87 1198.11 662.193 1197.92 663.514L1197.42 663.443C1197.23 664.764 1197.03 666.084 1196.81 667.401L1197.3 667.48C1197.09 668.8 1196.87 670.118 1196.63 671.433L1196.14 671.346C1195.91 672.659 1195.67 673.97 1195.41 675.278L1195.9 675.371C1195.65 676.682 1195.39 677.991 1195.11 679.297L1194.62 679.196C1194.35 680.502 1194.07 681.806 1193.77 683.108L1194.26 683.216C1193.97 684.521 1193.66 685.822 1193.35 687.121L1192.87 687.005C1192.56 688.302 1192.23 689.596 1191.9 690.887L1192.38 691.011C1192.05 692.305 1191.71 693.597 1191.36 694.886L1190.88 694.755C1190.53 696.041 1190.17 697.325 1189.8 698.606L1190.27 698.744C1189.9 700.026 1189.52 701.307 1189.14 702.584L1188.66 702.44C1188.27 703.715 1187.87 704.988 1187.46 706.258L1187.94 706.411C1187.53 707.683 1187.11 708.953 1186.68 710.22L1186.21 710.061C1185.79 711.325 1185.35 712.587 1184.9 713.846L1185.37 714.011C1184.93 715.269 1184.48 716.524 1184.01 717.776L1183.55 717.603C1183.08 718.853 1182.61 720.1 1182.13 721.344L1182.6 721.523C1182.12 722.77 1181.62 724.013 1181.13 725.254L1180.66 725.069C1180.17 726.307 1179.66 727.543 1179.14 728.776L1179.6 728.968C1179.08 730.198 1178.56 731.426 1178.03 732.65L1177.57 732.452C1177.04 733.672 1176.5 734.889 1175.95 736.103L1176.4 736.308C1175.85 737.525 1175.29 738.738 1174.73 739.949L1174.27 739.738C1173.71 740.946 1173.13 742.152 1172.55 743.354L1173 743.571C1172.41 744.774 1171.82 745.973 1171.22 747.17L1170.77 746.948C1170.17 748.135 1169.57 749.319 1168.96 750.5L1169.4 750.73C1168.78 751.913 1168.16 753.094 1167.53 754.271L1167.09 754.036C1166.46 755.21 1165.82 756.382 1165.17 757.551L1165.61 757.793C1164.96 758.964 1164.3 760.132 1163.64 761.296L1163.2 761.049C1162.54 762.205 1161.87 763.357 1161.2 764.506L1161.63 764.759C1160.95 765.907 1160.27 767.052 1159.58 768.193L1159.15 767.934C1158.46 769.073 1157.76 770.21 1157.05 771.343L1157.48 771.607C1156.77 772.741 1156.05 773.872 1155.33 775L1154.91 774.732C1154.19 775.857 1153.46 776.98 1152.72 778.099L1153.14 778.372C1152.41 779.482 1151.67 780.589 1150.92 781.692L1150.51 781.413C1149.76 782.514 1149.01 783.613 1148.25 784.707L1148.66 784.992C1147.89 786.088 1147.12 787.182 1146.35 788.272L1145.94 787.983C1145.17 789.071 1144.38 790.156 1143.59 791.238L1143.99 791.532C1143.21 792.609 1142.41 793.682 1141.61 794.752L1141.21 794.454C1140.41 795.517 1139.61 796.576 1138.8 797.631L1139.19 797.934C1138.38 798.991 1137.56 800.046 1136.73 801.096L1136.34 800.788C1135.51 801.836 1134.68 802.881 1133.84 803.923L1134.23 804.237C1133.39 805.28 1132.54 806.318 1131.68 807.355L1131.3 807.038C1130.45 808.063 1129.6 809.084 1128.74 810.102L1129.12 810.423C1128.26 811.44 1127.4 812.453 1126.53 813.462L1126.15 813.137C1125.28 814.145 1124.4 815.15 1123.52 816.151L1123.89 816.48C1123 817.482 1122.11 818.481 1121.21 819.477L1120.84 819.144C1119.95 820.137 1119.04 821.127 1118.13 822.114L1118.5 822.452C1117.6 823.427 1116.69 824.398 1115.78 825.367L1115.41 825.025C1114.5 825.992 1113.58 826.956 1112.66 827.915L1113.02 828.26C1112.09 829.221 1111.16 830.18 1110.22 831.134L1109.86 830.785C1108.92 831.737 1107.98 832.687 1107.03 833.632L1107.38 833.985C1106.43 834.928 1105.48 835.868 1104.52 836.804L1104.17 836.448C1103.22 837.373 1102.26 838.296 1101.3 839.214L1101.65 839.575C1100.68 840.494 1099.71 841.41 1098.74 842.323L1098.4 841.958C1097.42 842.87 1096.44 843.777 1095.46 844.681L1095.79 845.047C1094.81 845.953 1093.81 846.855 1092.81 847.753L1092.48 847.382C1091.49 848.274 1090.49 849.162 1089.49 850.046L1089.81 850.419C1088.82 851.297 1087.82 852.172 1086.81 853.042L1086.48 852.665C1085.47 853.535 1084.46 854.401 1083.44 855.263L1083.77 855.644C1082.75 856.507 1081.72 857.366 1080.69 858.222L1080.37 857.839C1079.34 858.694 1078.31 859.545 1077.27 860.393L1077.58 860.78C1076.55 861.623 1075.51 862.462 1074.46 863.297L1074.15 862.908C1073.11 863.736 1072.07 864.56 1071.02 865.381L1071.33 865.773C1070.28 866.595 1069.23 867.415 1068.17 868.229L1067.86 867.832C1066.81 868.646 1065.74 869.456 1064.68 870.262L1064.97 870.66C1063.9 871.466 1062.83 872.27 1061.75 873.07L1061.45 872.668C1060.38 873.461 1059.31 874.251 1058.22 875.037L1058.52 875.441C1057.44 876.221 1056.36 876.997 1055.28 877.77L1054.99 877.365C1053.9 878.137 1052.81 878.905 1051.72 879.67L1052.01 880.079C1050.91 880.845 1049.81 881.606 1048.71 882.365L1048.43 881.954C1047.32 882.712 1046.21 883.465 1045.1 884.214L1045.38 884.629C1044.27 885.375 1043.16 886.116 1042.04 886.855L1041.77 886.44C1040.66 887.171 1039.55 887.899 1038.43 888.623L1038.7 889.041C1037.59 889.766 1036.46 890.487 1035.34 891.204L1035.07 890.785C1033.94 891.501 1032.81 892.214 1031.68 892.923L1031.94 893.346C1030.81 894.056 1029.67 894.761 1028.52 895.463L1028.26 895.038C1027.12 895.737 1025.98 896.433 1024.83 897.124L1025.09 897.55C1023.95 898.235 1022.81 898.917 1021.66 899.594L1021.41 899.164C1020.26 899.841 1019.11 900.513 1017.96 901.182L1018.21 901.613C1017.05 902.282 1015.9 902.95 1014.73 903.612L1014.49 903.177C1013.32 903.838 1012.16 904.496 1010.99 905.15L1011.23 905.584C1010.06 906.238 1008.88 906.889 1007.7 907.536L1007.46 907.098C1006.3 907.735 1005.13 908.367 1003.96 908.996L1004.2 909.435C1003.03 910.065 1001.85 910.692 1000.67 911.314L1000.44 910.872C999.259 911.494 998.076 912.112 996.889 912.726L997.117 913.168C995.929 913.783 994.737 914.394 993.541 915.001L993.317 914.556C992.122 915.162 990.923 915.764 989.72 916.363L989.942 916.809C988.75 917.402 987.555 917.991 986.356 918.577L986.137 918.129C984.944 918.712 983.746 919.29 982.545 919.865L982.76 920.314C981.558 920.889 980.352 921.462 979.142 922.03L978.93 921.579C977.721 922.146 976.509 922.709 975.293 923.268L975.501 923.72C974.284 924.28 973.064 924.838 971.839 925.39L971.634 924.935C970.417 925.484 969.195 926.029 967.971 926.57L968.172 927.026C966.957 927.563 965.739 928.097 964.517 928.626L964.32 928.168C963.099 928.697 961.874 929.222 960.647 929.744L960.841 930.201C959.612 930.722 958.38 931.241 957.144 931.755L956.952 931.294C955.718 931.808 954.48 932.317 953.239 932.823L953.426 933.285C952.183 933.791 950.937 934.293 949.688 934.791L949.504 934.328C948.271 934.819 947.035 935.308 945.795 935.791L945.976 936.255C944.737 936.739 943.495 937.219 942.249 937.695L942.072 937.23C940.827 937.705 939.579 938.177 938.328 938.645L938.502 939.111C937.25 939.579 935.995 940.044 934.737 940.504L934.566 940.037C933.309 940.496 932.048 940.953 930.784 941.405L930.952 941.874C929.695 942.325 928.433 942.77 927.169 943.212L927.005 942.742C925.752 943.18 924.496 943.615 923.237 944.045L923.398 944.518C922.138 944.949 920.874 945.375 919.608 945.798L919.45 945.327C918.186 945.749 916.918 946.168 915.647 946.583L915.801 947.057C914.529 947.473 913.254 947.884 911.976 948.291L911.825 947.817C910.549 948.224 909.269 948.627 907.987 949.026L908.134 949.502C906.864 949.898 905.591 950.29 904.316 950.677L904.171 950.2C902.9 950.586 901.625 950.969 900.348 951.347L900.49 951.825C899.211 952.204 897.93 952.58 896.647 952.951L896.509 952.471C895.227 952.842 893.941 953.209 892.653 953.572L892.787 954.05C891.498 954.413 890.207 954.773 888.912 955.128L888.782 954.648C887.491 955.002 886.197 955.352 884.901 955.699L885.029 956.18C883.746 956.523 882.46 956.862 881.172 957.197L881.047 956.715C879.76 957.05 878.47 957.381 877.178 957.707L877.3 958.193C876.007 958.52 874.71 958.841 873.411 959.161L873.293 958.677C871.996 958.996 870.696 959.311 869.394 959.622L869.509 960.107C868.206 960.418 866.9 960.726 865.592 961.03L865.48 960.543C864.18 960.845 862.877 961.143 861.572 961.437L861.681 961.922C860.384 962.214 859.085 962.503 857.783 962.788L857.678 962.3C856.378 962.584 855.075 962.863 853.77 963.139L853.872 963.626C852.566 963.902 851.258 964.175 849.948 964.443L849.849 963.954C848.539 964.222 847.227 964.486 845.913 964.746L846.01 965.236C844.695 965.496 843.377 965.752 842.058 966.004L841.965 965.515C840.657 965.765 839.345 966.011 838.033 966.253L838.122 966.744C836.815 966.985 835.505 967.222 834.193 967.455L834.107 966.965C832.796 967.198 831.482 967.427 830.167 967.653L830.251 968.143C828.935 968.368 827.617 968.591 826.296 968.809L826.216 968.317C824.897 968.534 823.575 968.747 822.252 968.956L822.329 969.449C821.005 969.658 819.679 969.863 818.351 970.065L818.277 969.573C816.961 969.772 815.643 969.968 814.324 970.16L814.396 970.654C813.079 970.845 811.76 971.031 810.44 971.214L810.372 970.721C809.053 970.904 807.731 971.083 806.408 971.258L806.474 971.751C805.15 971.927 803.824 972.1 802.495 972.267L802.434 971.772C801.107 971.939 799.779 972.103 798.449 972.262L798.507 972.756C797.176 972.916 795.842 973.071 794.507 973.222L794.452 972.727C793.131 972.877 791.807 973.023 790.482 973.164L790.533 973.662C789.211 973.803 787.887 973.939 786.561 974.073L786.511 973.578C785.186 973.711 783.859 973.841 782.531 973.966L782.576 974.462C781.247 974.588 779.915 974.711 778.582 974.829L778.539 974.331C777.207 974.449 775.874 974.563 774.538 974.672L774.578 975.169C773.242 975.279 771.904 975.384 770.565 975.486L770.528 974.99C769.201 975.09 767.872 975.187 766.542 975.28L766.576 975.778C765.25 975.87 763.921 975.958 762.591 976.042L762.56 975.545C761.231 975.63 759.9 975.71 758.568 975.787L758.596 976.284C757.262 976.36 755.928 976.435 754.591 976.503L754.567 976.005C753.231 976.074 751.894 976.138 750.556 976.199L750.578 976.697C749.239 976.757 747.898 976.813 746.556 976.866L746.537 976.369C745.207 976.421 743.874 976.469 742.54 976.513L742.556 977.012C741.227 977.056 739.896 977.095 738.564 977.131L738.552 976.633C737.221 976.669 735.888 976.701 734.554 976.729L734.564 977.227C733.229 977.255 731.893 977.28 730.555 977.3L730.549 976.801C729.213 976.821 727.875 976.838 726.535 976.85L726.538 977.349C725.198 977.361 723.857 977.367 722.514 977.371V976.874C721.843 976.876 721.172 976.877 720.5 976.877C719.829 976.877 719.157 976.876 718.486 976.874L718.485 977.371C717.142 977.367 715.8 977.361 714.459 977.349L714.464 976.85C713.125 976.838 711.787 976.821 710.45 976.801L710.443 977.3C709.105 977.28 707.769 977.255 706.435 977.227L706.445 976.729C705.111 976.701 703.778 976.669 702.448 976.633L702.434 977.131C701.102 977.095 699.771 977.055 698.442 977.011L698.458 976.513C697.125 976.469 695.793 976.421 694.462 976.369L694.443 976.866C693.1 976.813 691.76 976.757 690.42 976.697L690.443 976.199C689.105 976.138 687.768 976.074 686.433 976.005L686.408 976.503C685.071 976.435 683.736 976.36 682.403 976.284L682.432 975.787C681.1 975.71 679.769 975.63 678.44 975.545L678.408 976.042C677.078 975.958 675.749 975.87 674.422 975.778L674.456 975.28C673.127 975.187 671.798 975.09 670.472 974.99L670.434 975.486C669.094 975.384 667.756 975.278 666.42 975.168L666.461 974.672C665.126 974.563 663.792 974.449 662.46 974.331L662.416 974.829C661.083 974.711 659.752 974.588 658.422 974.462L658.469 973.966C657.141 973.841 655.814 973.711 654.489 973.578L654.438 974.073C653.112 973.939 651.787 973.803 650.464 973.662H650.465L650.518 973.164C649.193 973.023 647.869 972.877 646.547 972.727L646.491 973.222C645.156 973.071 643.823 972.916 642.491 972.756L642.551 972.261C641.221 972.102 639.891 971.939 638.565 971.772L638.502 972.267C637.174 972.1 635.849 971.927 634.525 971.751L634.591 971.258C633.268 971.083 631.946 970.904 630.627 970.721L630.559 971.214C629.238 971.031 627.92 970.845 626.603 970.654H626.604L626.676 970.16C625.356 969.968 624.039 969.772 622.723 969.573L622.648 970.065C621.32 969.863 619.993 969.658 618.669 969.449L618.747 968.956C617.424 968.747 616.103 968.534 614.783 968.317L614.702 968.809C613.382 968.591 612.064 968.368 610.747 968.143L610.832 967.653C609.517 967.427 608.204 967.197 606.893 966.964L606.805 967.455C605.493 967.222 604.184 966.985 602.876 966.744L602.967 966.253C601.654 966.011 600.343 965.765 599.034 965.515L598.941 966.003C597.621 965.751 596.304 965.496 594.989 965.236L595.086 964.746C593.772 964.486 592.46 964.222 591.151 963.954L591.05 964.443C589.74 964.175 588.432 963.902 587.126 963.626L587.229 963.139C585.924 962.863 584.622 962.583 583.322 962.299L583.215 962.788C581.914 962.503 580.615 962.214 579.318 961.922L579.428 961.437C578.123 961.143 576.819 960.845 575.519 960.543L575.407 961.029C574.098 960.725 572.793 960.418 571.49 960.107L571.606 959.622C570.304 959.311 569.004 958.996 567.706 958.677L567.587 959.161C566.289 958.841 564.993 958.519 563.699 958.192L563.822 957.707C562.529 957.38 561.24 957.05 559.952 956.715L559.826 957.197C558.538 956.862 557.252 956.523 555.969 956.18L556.099 955.699C554.803 955.352 553.509 955.002 552.218 954.648L552.086 955.128C550.792 954.773 549.5 954.413 548.211 954.05L548.346 953.572C547.058 953.209 545.773 952.842 544.491 952.471L544.352 952.951C543.068 952.58 541.787 952.204 540.509 951.825L540.652 951.347C539.375 950.969 538.1 950.586 536.828 950.2L536.683 950.676C535.407 950.289 534.134 949.898 532.865 949.502L533.013 949.026C531.731 948.627 530.451 948.224 529.174 947.817L529.022 948.29C527.744 947.883 526.469 947.472 525.198 947.057L525.353 946.583C524.082 946.168 522.814 945.748 521.549 945.326L521.39 945.798C520.124 945.375 518.861 944.949 517.601 944.518L517.763 944.045C516.504 943.615 515.248 943.18 513.994 942.742L513.829 943.212C512.565 942.77 511.304 942.325 510.046 941.874L510.214 941.405C508.951 940.953 507.691 940.496 506.434 940.037L506.262 940.504C505.004 940.044 503.748 939.579 502.496 939.111L502.671 938.645C501.42 938.177 500.173 937.705 498.928 937.229L498.749 937.695C497.503 937.219 496.261 936.738 495.022 936.254L495.204 935.79C493.965 935.307 492.728 934.819 491.495 934.328L491.31 934.79C490.061 934.292 488.815 933.79 487.573 933.285L487.761 932.823C486.52 932.317 485.282 931.808 484.047 931.294L483.855 931.755C482.619 931.241 481.387 930.722 480.158 930.201L480.353 929.743C479.125 929.222 477.901 928.697 476.68 928.168L476.482 928.626H476.481C475.259 928.097 474.041 927.562 472.826 927.025L473.028 926.57C471.803 926.029 470.583 925.484 469.366 924.935L469.159 925.39H469.158C467.934 924.838 466.714 924.28 465.497 923.72L465.706 923.268C464.49 922.709 463.278 922.145 462.07 921.578L461.857 922.03C460.647 921.462 459.441 920.889 458.239 920.314L458.454 919.865C457.253 919.29 456.056 918.711 454.863 918.128L454.643 918.577C453.444 917.991 452.249 917.401 451.057 916.808L451.28 916.363C450.077 915.764 448.878 915.162 447.683 914.556L447.456 915C446.261 914.394 445.069 913.783 443.881 913.168L444.111 912.726C442.924 912.112 441.741 911.494 440.562 910.872L440.328 911.314C439.148 910.692 437.973 910.064 436.801 909.434L437.037 908.996C435.867 908.367 434.699 907.734 433.536 907.097L433.297 907.535C432.117 906.888 430.941 906.238 429.77 905.584L430.013 905.149C428.842 904.495 427.676 903.838 426.514 903.177L426.267 903.612H426.266C425.102 902.95 423.944 902.282 422.789 901.613L423.039 901.182C421.886 900.513 420.736 899.841 419.591 899.164L419.337 899.594C418.191 898.917 417.05 898.235 415.912 897.55L416.169 897.123C415.021 896.432 413.876 895.737 412.737 895.038L412.476 895.463C411.331 894.761 410.191 894.055 409.055 893.345L409.32 892.923C408.185 892.214 407.055 891.501 405.93 890.785L405.662 891.204C404.536 890.487 403.413 889.766 402.295 889.041L402.568 888.623C401.452 887.899 400.34 887.171 399.234 886.44L398.958 886.855C397.841 886.116 396.727 885.375 395.619 884.628L395.899 884.214C394.786 883.465 393.677 882.711 392.574 881.954L392.29 882.364C391.186 881.606 390.086 880.845 388.991 880.079L389.278 879.67C388.184 878.906 387.096 878.137 386.012 877.365L385.722 877.77C384.637 876.997 383.557 876.22 382.483 875.44L382.776 875.037C381.694 874.251 380.617 873.461 379.545 872.668L379.248 873.07C378.168 872.27 377.094 871.466 376.024 870.659L376.324 870.262C375.256 869.456 374.193 868.646 373.135 867.832L372.829 868.228C371.77 867.414 370.718 866.594 369.669 865.773L369.977 865.381C368.929 864.56 367.887 863.736 366.85 862.908L366.538 863.296C365.493 862.461 364.452 861.622 363.417 860.78L363.733 860.393C362.692 859.545 361.657 858.694 360.627 857.839L360.309 858.222C359.278 857.366 358.252 856.507 357.233 855.644L357.556 855.263C356.538 854.401 355.525 853.535 354.518 852.665L354.191 853.042C353.182 852.172 352.18 851.297 351.183 850.418L351.513 850.045C350.509 849.161 349.511 848.274 348.519 847.382L348.184 847.753C347.185 846.856 346.193 845.952 345.205 845.047L345.542 844.681C344.556 843.777 343.576 842.87 342.602 841.958L342.26 842.321C341.285 841.409 340.316 840.494 339.353 839.575L339.698 839.213C338.736 838.295 337.779 837.373 336.829 836.448L336.482 836.804C335.521 835.868 334.566 834.928 333.617 833.985L333.97 833.632C333.02 832.687 332.075 831.737 331.137 830.785L330.781 831.134C329.841 830.18 328.909 829.221 327.983 828.26L328.342 827.915C327.417 826.956 326.498 825.992 325.586 825.025L325.223 825.367C324.309 824.398 323.402 823.427 322.501 822.452L322.868 822.113C321.958 821.127 321.054 820.137 320.157 819.144L319.786 819.477C318.887 818.481 317.994 817.482 317.109 816.48L317.483 816.151C316.598 815.15 315.72 814.144 314.849 813.136L314.471 813.462C313.599 812.453 312.734 811.44 311.875 810.423L312.257 810.102C311.398 809.084 310.545 808.063 309.699 807.038L309.315 807.355C308.459 806.318 307.61 805.279 306.769 804.236L307.158 803.923C306.318 802.881 305.485 801.836 304.659 800.788L304.267 801.095C303.44 800.045 302.621 798.991 301.809 797.934L302.204 797.63C301.393 796.575 300.589 795.516 299.792 794.454L299.393 794.752C298.59 793.682 297.793 792.609 297.005 791.532L297.408 791.237C296.617 790.155 295.834 789.07 295.058 787.982L294.652 788.272C293.874 787.182 293.105 786.088 292.342 784.991L292.751 784.707C291.99 783.613 291.237 782.514 290.491 781.413L290.077 781.692C289.331 780.589 288.591 779.482 287.86 778.372L288.278 778.098C287.54 776.979 286.81 775.857 286.088 774.732L285.668 774.999C284.945 773.871 284.229 772.74 283.522 771.605L283.945 771.342C283.238 770.209 282.539 769.073 281.849 767.934L281.422 768.192C280.731 767.051 280.047 765.907 279.371 764.759L279.802 764.506C279.126 763.357 278.456 762.205 277.796 761.049L277.364 761.295C276.698 760.131 276.041 758.963 275.393 757.792L275.829 757.551C275.182 756.382 274.542 755.21 273.911 754.035L273.471 754.271C272.839 753.094 272.216 751.913 271.601 750.73L272.044 750.5C271.43 749.319 270.825 748.134 270.228 746.947L269.783 747.169C269.181 745.973 268.588 744.773 268.003 743.57L268.451 743.354C267.867 742.151 267.292 740.945 266.725 739.737L266.273 739.949C265.705 738.738 265.145 737.525 264.595 736.308L265.051 736.103C264.502 734.889 263.961 733.671 263.429 732.451L262.972 732.65C262.438 731.425 261.914 730.197 261.399 728.966L261.859 728.775C261.342 727.542 260.834 726.306 260.335 725.068L259.872 725.253C259.373 724.013 258.882 722.769 258.401 721.523L258.867 721.344C258.387 720.1 257.915 718.853 257.453 717.603L256.984 717.776C256.521 716.524 256.069 715.269 255.624 714.011L256.095 713.845C255.65 712.586 255.215 711.325 254.788 710.061L254.316 710.219C253.888 708.952 253.47 707.682 253.062 706.41L253.536 706.258C253.129 704.988 252.731 703.715 252.342 702.44L251.865 702.584C251.475 701.307 251.094 700.026 250.724 698.744L251.203 698.606C250.833 697.325 250.473 696.04 250.122 694.754L249.642 694.885C249.29 693.596 248.949 692.304 248.616 691.01L249.099 690.887C248.767 689.595 248.444 688.301 248.132 687.004L247.648 687.121C247.335 685.821 247.031 684.52 246.738 683.216L247.225 683.107C246.932 681.805 246.649 680.502 246.375 679.196L245.887 679.297C245.614 677.991 245.351 676.682 245.097 675.371L245.587 675.278C245.334 673.97 245.09 672.659 244.857 671.346L244.366 671.432C244.133 670.117 243.908 668.8 243.695 667.48L244.187 667.401C243.973 666.083 243.77 664.764 243.576 663.442L243.082 663.514C242.889 662.193 242.705 660.87 242.532 659.544L243.028 659.481C242.855 658.162 242.692 656.84 242.539 655.517L242.044 655.573C241.891 654.247 241.749 652.919 241.616 651.589L242.112 651.54C241.979 650.213 241.857 648.883 241.744 647.551L241.247 647.592C241.135 646.258 241.031 644.922 240.939 643.584L241.438 643.551C241.347 642.227 241.266 640.9 241.195 639.572L240.697 639.598C240.625 638.267 240.565 636.935 240.514 635.6L241.011 635.581C240.96 634.25 240.92 632.916 240.889 631.58L240.39 631.591C240.359 630.253 240.338 628.913 240.327 627.571L240.827 627.568L240.82 625.558C240.82 624.887 240.822 624.217 240.827 623.547L240.327 623.543C240.338 622.202 240.359 620.862 240.39 619.524L240.889 619.535C240.92 618.199 240.96 616.865 241.011 615.534L240.514 615.514C240.565 614.18 240.625 612.847 240.697 611.517L241.195 611.543C241.266 610.215 241.347 608.889 241.438 607.565L240.939 607.53C241.031 606.192 241.135 604.856 241.247 603.522L241.744 603.564C241.857 602.232 241.979 600.903 242.112 599.576L241.616 599.526C241.749 598.196 241.891 596.867 242.044 595.541L242.539 595.599C242.692 594.276 242.855 592.954 243.028 591.635L242.532 591.57C242.705 590.245 242.889 588.922 243.082 587.601L243.576 587.673C243.77 586.352 243.973 585.032 244.187 583.714L243.695 583.635C243.909 582.315 244.133 580.997 244.366 579.682L244.857 579.77C245.09 578.457 245.334 577.146 245.587 575.838L245.097 575.743C245.35 574.432 245.614 573.124 245.887 571.818L246.375 571.92C246.649 570.614 246.932 569.31 247.225 568.008L246.738 567.899C247.031 566.595 247.335 565.293 247.648 563.994L248.133 564.111C248.445 562.814 248.767 561.52 249.099 560.228L248.616 560.104C248.949 558.81 249.29 557.518 249.642 556.229L250.122 556.361C250.473 555.075 250.834 553.791 251.204 552.51L250.724 552.371C251.094 551.088 251.475 549.808 251.865 548.53L252.342 548.676C252.731 547.401 253.129 546.128 253.536 544.858L253.063 544.704C253.471 543.432 253.888 542.162 254.316 540.895L254.788 541.055C255.215 539.791 255.65 538.529 256.095 537.27L255.624 537.104C256.069 535.846 256.521 534.591 256.984 533.338L256.985 533.339L257.453 533.513C257.915 532.263 258.387 531.016 258.867 529.772L258.402 529.591C258.883 528.345 259.374 527.101 259.873 525.861L260.335 526.047C260.834 524.809 261.342 523.573 261.859 522.34L261.4 522.147C261.915 520.917 262.439 519.689 262.972 518.465L263.43 518.664C263.961 517.444 264.502 516.227 265.051 515.013L264.595 514.807C265.145 513.59 265.705 512.377 266.273 511.166L266.725 511.378C267.292 510.17 267.867 508.965 268.451 507.762L268.003 507.544C268.588 506.341 269.181 505.141 269.783 503.944L270.228 504.168C270.825 502.981 271.43 501.797 272.044 500.616L271.601 500.385C272.216 499.202 272.839 498.021 273.471 496.844L273.911 497.08C274.542 495.905 275.182 494.733 275.829 493.564L275.394 493.323C276.042 492.152 276.698 490.984 277.364 489.82L277.797 490.067C278.457 488.911 279.126 487.758 279.802 486.609L279.371 486.356C280.047 485.208 280.73 484.064 281.422 482.922L281.849 483.181C282.539 482.042 283.238 480.906 283.945 479.773L283.523 479.509C284.23 478.374 284.946 477.243 285.669 476.115L286.088 476.384C286.81 475.259 287.54 474.136 288.278 473.017L287.86 472.743C288.591 471.633 289.33 470.526 290.077 469.422L290.491 469.703C291.237 468.601 291.991 467.503 292.752 466.409L292.343 466.123C293.105 465.027 293.874 463.933 294.652 462.843L295.058 463.133C295.834 462.045 296.618 460.96 297.409 459.878L297.006 459.583L297.005 459.582C297.793 458.505 298.589 457.432 299.392 456.362L299.792 456.662C300.589 455.599 301.393 454.54 302.204 453.485L301.809 453.181C302.621 452.124 303.441 451.069 304.268 450.019L304.659 450.329C305.485 449.28 306.318 448.235 307.158 447.193L306.769 446.878C307.61 445.835 308.459 444.796 309.315 443.76L309.699 444.078C310.545 443.053 311.398 442.032 312.257 441.014L311.876 440.692C312.735 439.675 313.599 438.661 314.471 437.652L314.85 437.979C315.721 436.971 316.598 435.966 317.483 434.965L317.109 434.634C317.994 433.632 318.887 432.633 319.786 431.638L320.157 431.972C321.054 430.979 321.958 429.989 322.868 429.002L322.501 428.663C323.402 427.688 324.31 426.716 325.224 425.747L325.586 426.091C326.498 425.124 327.417 424.16 328.342 423.201L327.984 422.854C328.91 421.893 329.842 420.935 330.781 419.981L331.137 420.331C332.075 419.379 333.019 418.429 333.97 417.484L333.617 417.129C334.566 416.186 335.521 415.247 336.482 414.311L336.83 414.668C337.78 413.743 338.735 412.82 339.698 411.902L339.353 411.54C340.316 410.621 341.287 409.706 342.262 408.793L342.603 409.158C343.577 408.246 344.557 407.339 345.543 406.435L345.206 406.067C346.194 405.162 347.186 404.259 348.185 403.362L348.519 403.734C349.511 402.842 350.51 401.954 351.514 401.07L351.184 400.696C352.181 399.818 353.183 398.943 354.192 398.073L354.518 398.451C355.525 397.581 356.538 396.714 357.556 395.852L357.233 395.471C358.252 394.608 359.278 393.749 360.309 392.893L360.627 393.277C361.657 392.422 362.692 391.57 363.733 390.723L363.417 390.335C364.452 389.493 365.493 388.654 366.538 387.819L366.851 388.208C367.888 387.38 368.929 386.556 369.977 385.735L369.669 385.342C370.718 384.52 371.77 383.7 372.829 382.886L372.83 382.887L373.135 383.284C374.193 382.47 375.256 381.66 376.324 380.854L376.025 380.455C377.094 379.649 378.168 378.845 379.248 378.045L379.546 378.447C380.618 377.654 381.695 376.864 382.777 376.079L382.483 375.675C383.557 374.895 384.637 374.118 385.722 373.345L386.013 373.75C387.096 372.978 388.185 372.209 389.279 371.445L388.991 371.036C390.087 370.27 391.187 369.509 392.292 368.75L392.574 369.162C393.677 368.404 394.786 367.651 395.899 366.901L395.619 366.487C396.727 365.74 397.841 364.999 398.958 364.26L399.234 364.676C400.34 363.945 401.452 363.217 402.568 362.493L402.296 362.073C403.413 361.348 404.535 360.628 405.661 359.911L405.93 360.331C407.055 359.615 408.186 358.902 409.321 358.193L409.055 357.77C410.191 357.06 411.331 356.354 412.476 355.652L412.738 356.078C413.877 355.379 415.022 354.683 416.17 353.992L415.912 353.565C417.05 352.88 418.191 352.198 419.337 351.521L419.592 351.952C420.737 351.275 421.887 350.603 423.04 349.934L422.789 349.502C423.944 348.833 425.102 348.165 426.266 347.503L426.267 347.504L426.514 347.939C427.676 347.278 428.843 346.62 430.014 345.966L429.77 345.531C430.91 344.894 432.053 344.261 433.2 343.632L433.297 343.579L433.537 344.018C434.7 343.381 435.867 342.749 437.037 342.12L436.801 341.68C437.973 341.05 439.148 340.422 440.328 339.8L440.329 339.801L440.562 340.244C441.741 339.622 442.924 339.004 444.111 338.39L443.881 337.947C445.069 337.332 446.261 336.721 447.457 336.114L447.684 336.56C448.879 335.954 450.077 335.351 451.28 334.752L451.057 334.306C452.248 333.713 453.444 333.124 454.643 332.538L454.863 332.987C456.056 332.404 457.254 331.825 458.455 331.25L458.24 330.801C459.442 330.226 460.647 329.652 461.857 329.084L461.858 329.085L462.07 329.538C463.278 328.97 464.49 328.407 465.706 327.848L465.497 327.395C466.715 326.835 467.935 326.276 469.159 325.724L469.16 325.725L469.366 326.181C470.583 325.632 471.804 325.087 473.029 324.545L472.826 324.089C474.042 323.552 475.26 323.018 476.482 322.489L476.681 322.948C477.902 322.419 479.126 321.894 480.354 321.372L480.158 320.913C481.387 320.392 482.619 319.874 483.855 319.36L484.047 319.821C485.282 319.307 486.52 318.798 487.761 318.292L487.573 317.83C488.815 317.324 490.061 316.822 491.311 316.324L491.495 316.788C492.728 316.297 493.965 315.808 495.204 315.325L495.023 314.86C496.262 314.376 497.505 313.896 498.75 313.42L498.928 313.886C500.172 313.411 501.42 312.939 502.671 312.471L502.496 312.004C503.748 311.536 505.004 311.071 506.262 310.611L506.434 311.079C507.691 310.62 508.952 310.163 510.215 309.711L510.046 309.241C511.304 308.791 512.565 308.345 513.829 307.903L513.994 308.373C515.247 307.935 516.504 307.5 517.763 307.07L517.601 306.597C518.861 306.166 520.125 305.74 521.391 305.317L521.549 305.789C522.814 305.367 524.082 304.948 525.353 304.533L525.198 304.057C526.47 303.642 527.745 303.231 529.023 302.824L529.174 303.299C530.451 302.892 531.731 302.489 533.013 302.089L532.865 301.613C534.135 301.217 535.408 300.826 536.684 300.438L536.829 300.916C538.101 300.53 539.375 300.147 540.652 299.769L540.51 299.29C540.909 299.172 541.309 299.054 541.708 298.936L544.353 298.164L544.491 298.645C545.774 298.274 547.059 297.907 548.347 297.544L548.211 297.064C549.5 296.701 550.792 296.341 552.086 295.986L552.219 296.468C553.51 296.114 554.803 295.763 556.099 295.416L555.97 294.935C557.253 294.592 558.539 294.252 559.827 293.917L559.953 294.401C561.241 294.066 562.53 293.736 563.823 293.409L563.699 292.923C564.993 292.596 566.289 292.274 567.587 291.954L567.706 292.439C569.004 292.12 570.304 291.805 571.606 291.494L571.49 291.008C572.793 290.697 574.098 290.39 575.407 290.086L575.52 290.573C576.82 290.271 578.123 289.973 579.428 289.679L579.319 289.193C580.615 288.901 581.914 288.612 583.215 288.328L583.322 288.816C584.622 288.532 585.925 288.253 587.23 287.977L587.126 287.489C588.432 287.213 589.74 286.94 591.051 286.672L591.151 287.161C592.46 286.893 593.772 286.63 595.086 286.37L594.99 285.879C596.304 285.619 597.621 285.364 598.941 285.112L599.034 285.601C600.343 285.351 601.654 285.105 602.967 284.863L602.876 284.371C604.184 284.13 605.494 283.893 606.806 283.66L606.894 284.151C608.205 283.918 609.517 283.689 610.832 283.463L610.748 282.972C612.064 282.747 613.382 282.524 614.702 282.306L614.783 282.799C616.103 282.582 617.424 282.369 618.747 282.16L618.669 281.666C619.994 281.457 621.32 281.252 622.649 281.05L622.723 281.543C624.039 281.344 625.357 281.148 626.676 280.956L626.605 280.461C627.921 280.27 629.239 280.084 630.559 279.901L630.628 280.395C631.947 280.212 633.268 280.033 634.591 279.858L634.526 279.363C635.85 279.187 637.175 279.015 638.503 278.848L638.566 279.344C639.892 279.177 641.221 279.013 642.551 278.854L642.491 278.359C643.823 278.199 645.156 278.044 646.491 277.893L646.548 278.388C647.87 278.238 649.193 278.092 650.518 277.951L650.465 277.454C651.788 277.312 653.113 277.175 654.439 277.041L654.489 277.538C655.814 277.405 657.141 277.275 658.469 277.15L658.422 276.653C659.752 276.527 661.083 276.404 662.416 276.287L662.46 276.785C663.792 276.667 665.126 276.553 666.461 276.444L666.42 275.947C667.757 275.837 669.095 275.731 670.435 275.629L670.472 276.126C671.799 276.026 673.127 275.929 674.457 275.836L674.422 275.337L674.421 275.336C675.749 275.244 677.078 275.157 678.408 275.073L678.44 275.571C679.769 275.486 681.1 275.405 682.432 275.329L682.404 274.83C683.737 274.754 685.071 274.68 686.408 274.612L686.433 275.111C687.768 275.042 689.105 274.978 690.444 274.917L690.421 274.418C691.76 274.358 693.101 274.302 694.444 274.249L694.463 274.747C695.794 274.695 697.126 274.647 698.459 274.603L698.443 274.104C699.772 274.06 701.103 274.02 702.435 273.984L702.449 274.483C703.779 274.447 705.112 274.414 706.446 274.386L706.435 273.888C707.77 273.86 709.106 273.835 710.444 273.815L710.451 274.314C711.788 274.294 713.126 274.278 714.465 274.266L714.46 273.766L714.459 273.765C715.8 273.753 717.142 273.747 718.485 273.743L718.487 274.242C719.157 274.24 719.829 274.239 720.5 274.239C721.172 274.239 721.843 274.24 722.514 274.242L722.515 273.743C723.858 273.747 725.2 273.753 726.54 273.765V273.766L726.535 274.266C727.875 274.278 729.213 274.294 730.549 274.314L730.556 273.815C731.894 273.835 733.23 273.86 734.565 273.888L734.555 274.386C735.889 274.414 737.221 274.447 738.552 274.483L738.565 273.984C739.897 274.02 741.228 274.06 742.557 274.104L742.541 274.603C743.875 274.647 745.207 274.695 746.537 274.747L746.556 274.249C747.898 274.302 749.239 274.358 750.578 274.418L750.557 274.917C751.895 274.978 753.232 275.042 754.567 275.111L754.592 274.612C755.928 274.68 757.263 274.754 758.596 274.83L758.569 275.329C759.901 275.405 761.232 275.486 762.561 275.571L762.591 275.073C763.922 275.157 765.251 275.244 766.578 275.336V275.337L766.543 275.836C767.873 275.929 769.201 276.026 770.528 276.126L770.565 275.629C771.904 275.731 773.242 275.836 774.578 275.946L774.539 276.444C775.875 276.553 777.208 276.667 778.54 276.785L778.583 276.287C779.916 276.404 781.248 276.527 782.577 276.653L782.531 277.15C783.859 277.275 785.187 277.405 786.512 277.538L786.561 277.042C787.887 277.176 789.212 277.312 790.534 277.454L790.482 277.951C791.807 278.092 793.131 278.239 794.452 278.389L794.508 277.893C795.843 278.044 797.176 278.199 798.507 278.359L798.449 278.854C799.78 279.013 801.108 279.177 802.435 279.344L802.496 278.848C803.824 279.015 805.15 279.188 806.474 279.364L806.409 279.858C807.732 280.033 809.053 280.212 810.372 280.395L810.44 279.901C811.76 280.084 813.078 280.27 814.395 280.461L814.324 280.956C815.643 281.148 816.961 281.344 818.277 281.543L818.351 281.05C819.679 281.252 821.006 281.457 822.33 281.666L822.253 282.16C823.576 282.369 824.898 282.582 826.217 282.799L826.297 282.306C827.617 282.524 828.935 282.747 830.251 282.972L830.168 283.463C831.483 283.689 832.796 283.918 834.107 284.151L834.194 283.66C835.506 283.893 836.816 284.13 838.123 284.371L838.033 284.863C839.346 285.105 840.657 285.351 841.965 285.601L842.059 285.112C843.378 285.364 844.695 285.619 846.01 285.879L845.914 286.37C847.228 286.63 848.54 286.894 849.849 287.162L849.949 286.672C851.259 286.94 852.567 287.213 853.873 287.489L853.771 287.977C855.075 288.253 856.378 288.532 857.678 288.816L857.784 288.328C859.086 288.612 860.384 288.901 861.681 289.193L861.573 289.679C862.878 289.973 864.18 290.271 865.481 290.573L865.593 290.086C866.901 290.39 868.207 290.697 869.51 291.008L869.395 291.494C870.697 291.805 871.996 292.12 873.293 292.439L873.412 291.954C874.711 292.274 876.007 292.596 877.3 292.923H877.301L877.178 293.409C878.47 293.736 879.76 294.066 881.047 294.401L881.172 293.918C882.46 294.253 883.746 294.592 885.03 294.935L884.902 295.417C886.198 295.764 887.491 296.114 888.782 296.468L888.913 295.986C890.208 296.341 891.499 296.702 892.788 297.065L892.654 297.544C893.941 297.907 895.227 298.274 896.509 298.645L896.647 298.164C897.93 298.536 899.211 298.912 900.49 299.29L900.349 299.769C901.626 300.147 902.9 300.53 904.171 300.916L904.316 300.438C905.592 300.826 906.865 301.218 908.135 301.614L907.988 302.09C909.27 302.489 910.549 302.892 911.825 303.299L911.977 302.824C913.255 303.231 914.53 303.642 915.802 304.057V304.058L915.647 304.533C916.918 304.948 918.186 305.367 919.451 305.789L919.609 305.317C920.875 305.74 922.138 306.166 923.398 306.597L923.238 307.071C924.496 307.501 925.752 307.936 927.005 308.374L927.169 307.903C928.433 308.345 929.695 308.791 930.952 309.241L930.785 309.711C932.049 310.163 933.309 310.62 934.567 311.079L934.738 310.611C935.996 311.071 937.251 311.536 938.503 312.004L938.328 312.471C939.579 312.939 940.827 313.411 942.072 313.886L942.249 313.42C943.495 313.896 944.737 314.377 945.977 314.861L945.796 315.325C947.036 315.808 948.271 316.297 949.504 316.788L949.689 316.325C950.938 316.823 952.184 317.325 953.427 317.831L953.239 318.293C954.48 318.799 955.719 319.308 956.953 319.822L957.144 319.36C958.38 319.874 959.612 320.393 960.841 320.914L960.647 321.373C961.874 321.894 963.099 322.419 964.32 322.948L964.518 322.489C965.74 323.018 966.958 323.552 968.173 324.089L967.972 324.546C969.196 325.087 970.418 325.632 971.635 326.181L971.839 325.725C973.064 326.277 974.284 326.835 975.501 327.395L975.293 327.848C976.509 328.408 977.722 328.97 978.931 329.538L979.142 329.085C980.352 329.653 981.558 330.226 982.76 330.801L982.545 331.251C983.746 331.826 984.944 332.405 986.138 332.988L986.356 332.538C987.555 333.124 988.751 333.713 989.943 334.306L989.721 334.753C990.923 335.352 992.122 335.954 993.317 336.56L993.542 336.114C994.738 336.72 995.929 337.333 997.117 337.948L996.89 338.39C998.077 339.004 999.259 339.622 1000.44 340.244L1000.67 339.801V339.8C1001.85 340.422 1003.03 341.05 1004.2 341.68L1003.96 342.12C1005.13 342.749 1006.3 343.382 1007.46 344.019L1007.7 343.579C1008.88 344.226 1010.06 344.878 1011.23 345.532L1010.99 345.967C1012.16 346.621 1013.32 347.278 1014.49 347.939L1014.73 347.504C1015.9 348.166 1017.06 348.833 1018.21 349.502L1017.96 349.934C1019.11 350.603 1020.26 351.275 1021.41 351.952L1021.66 351.521C1022.81 352.198 1023.95 352.88 1025.09 353.565L1024.83 353.993C1025.98 354.684 1027.12 355.379 1028.26 356.078L1028.52 355.652C1029.67 356.354 1030.81 357.06 1031.94 357.77L1031.68 358.193C1032.81 358.902 1033.94 359.615 1035.07 360.331L1035.34 359.911C1036.46 360.628 1037.59 361.349 1038.7 362.074L1038.43 362.493C1039.55 363.217 1040.66 363.945 1041.77 364.676L1042.04 364.26C1043.16 364.999 1044.27 365.74 1045.38 366.487H1045.38L1045.1 366.902C1046.21 367.651 1047.32 368.405 1048.43 369.163L1048.71 368.75C1049.81 369.509 1050.91 370.27 1052.01 371.036L1051.72 371.446C1052.82 372.211 1053.9 372.979 1054.99 373.751L1055.28 373.345C1056.36 374.118 1057.44 374.895 1058.52 375.675L1058.22 376.079C1059.31 376.865 1060.38 377.655 1061.45 378.448L1061.75 378.045C1062.83 378.845 1063.9 379.649 1064.97 380.456L1064.68 380.854C1065.74 381.66 1066.81 382.47 1067.87 383.284L1068.17 382.887C1069.23 383.702 1070.28 384.52 1071.33 385.342L1071.02 385.735C1072.07 386.556 1073.11 387.38 1074.15 388.208L1074.46 387.819C1075.51 388.654 1076.55 389.493 1077.58 390.335L1077.27 390.723C1078.31 391.571 1079.34 392.422 1080.37 393.277L1080.69 392.893C1081.72 393.749 1082.75 394.608 1083.77 395.471L1083.44 395.853C1084.46 396.715 1085.48 397.581 1086.48 398.451L1086.81 398.073C1087.82 398.943 1088.82 399.818 1089.81 400.696L1089.49 401.071C1090.49 401.955 1091.49 402.842 1092.48 403.734L1092.81 403.362C1093.81 404.26 1094.81 405.162 1095.79 406.068L1095.46 406.435C1096.44 407.339 1097.42 408.246 1098.4 409.158L1098.74 408.793C1099.71 409.706 1100.68 410.621 1101.65 411.54L1101.3 411.903C1102.26 412.821 1103.22 413.743 1104.17 414.668L1104.52 414.311C1105.48 415.247 1106.43 416.187 1107.38 417.13L1107.03 417.484C1107.98 418.429 1108.93 419.379 1109.86 420.331L1110.22 419.981V419.98C1111.16 420.934 1112.09 421.894 1113.02 422.855L1112.66 423.201C1113.58 424.161 1114.5 425.124 1115.41 426.091L1115.78 425.748C1116.69 426.717 1117.6 427.689 1118.5 428.664L1118.13 429.003C1119.04 429.989 1119.95 430.979 1120.84 431.972L1121.21 431.637C1122.11 432.633 1123 433.632 1123.89 434.634L1123.52 434.965C1124.4 435.966 1125.28 436.971 1126.15 437.979L1126.53 437.653C1127.4 438.662 1128.26 439.676 1129.12 440.693L1128.74 441.014C1129.6 442.032 1130.46 443.053 1131.3 444.078L1131.68 443.759C1132.54 444.796 1133.39 445.836 1134.23 446.879L1133.84 447.193C1134.68 448.235 1135.51 449.28 1136.34 450.329L1136.73 450.021C1137.56 451.071 1138.38 452.125 1139.19 453.182L1138.8 453.486C1139.61 454.541 1140.41 455.599 1141.21 456.662L1141.61 456.362C1142.41 457.432 1143.21 458.506 1143.99 459.583L1143.59 459.878C1144.38 460.96 1145.17 462.045 1145.94 463.133L1146.35 462.843C1147.12 463.933 1147.89 465.027 1148.66 466.123L1148.25 466.409C1149.01 467.504 1149.76 468.602 1150.51 469.704L1150.92 469.423C1151.67 470.526 1152.41 471.633 1153.14 472.743L1152.72 473.018C1153.46 474.137 1154.19 475.259 1154.91 476.384L1155.33 476.115C1156.05 477.243 1156.77 478.375 1157.48 479.51L1157.05 479.774C1157.76 480.907 1158.46 482.043 1159.15 483.182L1159.58 482.923C1160.27 484.064 1160.95 485.209 1161.63 486.356L1161.2 486.61C1161.87 487.759 1162.54 488.911 1163.2 490.067L1163.64 489.819C1164.3 490.984 1164.96 492.152 1165.61 493.324L1165.17 493.565C1165.82 494.734 1166.46 495.906 1167.09 497.081L1167.53 496.844C1168.16 498.021 1168.78 499.202 1169.4 500.385L1168.96 500.616C1169.57 501.797 1170.18 502.982 1170.77 504.169L1171.22 503.945C1171.82 505.141 1172.41 506.342 1173 507.544L1172.55 507.762C1173.13 508.965 1173.71 510.17 1174.28 511.378L1174.73 511.166C1175.29 512.377 1175.85 513.59 1176.4 514.807H1176.4L1175.95 515.013C1176.5 516.227 1177.04 517.444 1177.57 518.664L1178.03 518.465C1178.56 519.69 1179.08 520.918 1179.6 522.148L1179.14 522.341C1179.66 523.574 1180.17 524.81 1180.66 526.048L1181.13 525.862C1181.63 527.102 1182.12 528.346 1182.6 529.592L1182.13 529.772C1182.61 531.016 1183.08 532.263 1183.55 533.513L1184.01 533.339C1184.48 534.591 1184.93 535.846 1185.37 537.104L1184.91 537.271C1185.35 538.53 1185.79 539.791 1186.21 541.055L1186.68 540.896C1187.11 542.163 1187.53 543.432 1187.94 544.704L1187.46 544.858C1187.87 546.128 1188.27 547.401 1188.66 548.676L1189.14 548.531C1189.52 549.808 1189.9 551.089 1190.27 552.371L1189.8 552.51C1190.17 553.791 1190.53 555.075 1190.88 556.361L1191.36 556.23C1191.71 557.519 1192.05 558.81 1192.38 560.104L1191.9 560.229C1192.23 561.521 1192.56 562.815 1192.87 564.112L1193.35 563.995C1193.66 565.294 1193.97 566.595 1194.26 567.899L1193.77 568.008C1194.07 569.31 1194.35 570.614 1194.62 571.92L1195.11 571.818Z" stroke="white" stroke-dasharray="4 4"/>
<path opacity="0.2" d="M720.5 377.375C814.132 377.375 898.879 405.182 960.207 450.116C1021.53 495.05 1059.41 557.084 1059.41 625.558C1059.41 694.032 1021.53 756.066 960.207 801C898.879 845.933 814.132 873.741 720.5 873.741C626.868 873.741 542.121 845.933 480.793 801C419.465 756.066 381.585 694.032 381.585 625.558C381.585 557.084 419.465 495.05 480.793 450.116C542.121 405.182 626.868 377.375 720.5 377.375Z" stroke="white"/>
<path d="M313.991 274.239C317.528 274.239 320.711 275.29 322.998 276.965C325.284 278.641 326.647 280.913 326.647 283.377C326.647 285.841 325.284 288.115 322.998 289.79C320.711 291.465 317.528 292.516 313.991 292.516C310.453 292.516 307.27 291.466 304.984 289.79C302.697 288.115 301.336 285.841 301.336 283.377C301.336 280.914 302.698 278.641 304.984 276.965C307.27 275.29 310.453 274.239 313.991 274.239Z" stroke="#4D3763"/>
<path d="M313.992 280.022C315.349 280.022 316.559 280.426 317.416 281.054C318.275 281.683 318.753 282.511 318.753 283.378C318.753 284.244 318.275 285.072 317.416 285.701C316.559 286.329 315.349 286.733 313.992 286.733C312.634 286.733 311.424 286.329 310.566 285.701C309.708 285.072 309.229 284.244 309.229 283.378C309.229 282.511 309.708 281.683 310.566 281.054C311.424 280.426 312.634 280.022 313.992 280.022Z" fill="#2A193C" stroke="#4D3763"/>
</g>
</g>
<defs>
<filter id="filter0_f_15_17" x="-307.043" y="-287.648" width="2058.69" height="1793.86" filterUnits="userSpaceOnUse" color-interpolation-filters="sRGB">
<feFlood flood-opacity="0" result="BackgroundImageFix"/>
<feBlend mode="normal" in="SourceGraphic" in2="BackgroundImageFix" result="shape"/>
<feGaussianBlur stdDeviation="267" result="effect1_foregroundBlur_15_17"/>
</filter>
<filter id="filter1_f_15_17" x="156.664" y="134.97" width="1131.27" height="948.622" filterUnits="userSpaceOnUse" color-interpolation-filters="sRGB">
<feFlood flood-opacity="0" result="BackgroundImageFix"/>
<feBlend mode="normal" in="SourceGraphic" in2="BackgroundImageFix" result="shape"/>
<feGaussianBlur stdDeviation="112" result="effect1_foregroundBlur_15_17"/>
</filter>
</defs>
</svg>
